PathFileType	4	(X/Y/Z)	c:/Users/goper/Files/vsCode/490R/osim_files/A06/A06_Static.trc
DataRate	CameraRate	NumFrames	NumMarkers	Units                	OrigDataRate	OrigDataStartFrame	OrigNumFrames
120.00	120.00	8	36	mm	120.0	329	1315
                Frame#	Time	LPSIS			LASIS			LTH1			LTH2			LTH3			LTH4			LLFE			LMFE			LSH1			LSH2			LSH3			LSH4			LLMAL			LMMAL			LCAL			LMTP5			LTOE			LMTP1			RPSIS			RASIS			RTH1			RTH2			RTH3			RTH4			RLFE			RMFE			RSH1			RSH2			RSH3			RSH4			RLMAL			RMMAL			RCAL			RMTP1			RTOE			RMTP5		
		X1	Y1	Z1	X2	Y2	Z2	X3	Y3	Z3	X4	Y4	Z4	X5	Y5	Z5	X6	Y6	Z6	X7	Y7	Z7	X8	Y8	Z8	X9	Y9	Z9	X10	Y10	Z10	X11	Y11	Z11	X12	Y12	Z12	X13	Y13	Z13	X14	Y14	Z14	X15	Y15	Z15	X16	Y16	Z16	X17	Y17	Z17	X18	Y18	Z18	X19	Y19	Z19	X20	Y20	Z20	X21	Y21	Z21	X22	Y22	Z22	X23	Y23	Z23	X24	Y24	Z24	X25	Y25	Z25	X26	Y26	Z26	X27	Y27	Z27	X28	Y28	Z28	X29	Y29	Z29	X30	Y30	Z30	X31	Y31	Z31	X32	Y32	Z32	X33	Y33	Z33	X34	Y34	Z34	X35	Y35	Z35	X36	Y36	Z36

329	2.73333	-301.36502	986.53595	426.29407	-114.95142	948.91913	345.95187	-219.54890	599.45020	299.29333	-215.81955	556.80286	304.01566	-156.33218	594.77533	313.47345	-164.08618	552.74219	315.66437	-198.01036	480.67801	320.92810	-199.73492	470.37961	429.23654	-264.00327	390.12244	304.08817	-258.91251	344.59631	296.76810	-201.85489	390.06915	309.51883	-204.47185	348.10449	304.29547	-253.94217	92.70927	333.54745	-235.14265	110.93145	416.34882	-314.65613	77.98309	383.71881	-134.58705	42.21448	312.40216	-94.23624	62.40215	367.81870	-117.96949	55.30113	407.15762	-289.36508	997.61829	557.50720	-113.98250	953.42340	608.60083	-245.19405	601.31641	648.51630	-242.18935	557.57092	650.67432	-182.67610	597.36108	640.08521	-189.46626	553.33832	645.45679	-228.41096	440.03824	629.51953	-228.59241	437.75424	540.41016	-262.17035	286.23068	623.25256	-265.33734	238.71233	623.80231	-203.12807	277.85034	611.56458	-214.36201	230.80417	617.97968	-280.47818	102.65093	638.49945	-267.67249	101.48895	555.15753	-338.12683	81.16459	592.31616	-136.50470	53.92621	562.21606	-120.82973	65.19198	602.30682	-147.64357	51.75188	649.94202
330	2.74167	-301.27780	986.53632	426.21292	-114.90817	948.89423	345.92868	-219.47722	599.45294	299.26541	-215.75639	556.81116	303.98163	-156.29788	594.78400	313.42630	-164.05138	552.73218	315.65079	-197.97420	480.68451	320.90302	-199.72018	470.37250	429.21475	-263.93744	390.12918	304.04077	-258.87329	344.59903	296.72977	-201.81175	390.06003	309.50146	-204.43130	348.08997	304.27963	-253.91341	92.70485	333.55704	-235.17517	110.92308	416.37286	-314.65811	77.99227	383.69397	-134.59065	42.22193	312.40341	-94.23942	62.39556	367.81454	-117.97587	55.28111	407.16943	-289.37775	997.62262	557.42450	-114.00132	953.41840	608.57806	-245.20859	601.33618	648.48639	-242.18677	557.57507	650.63000	-182.79207	597.22601	640.18530	-189.49361	553.34424	645.42914	-228.42334	440.04117	629.51019	-228.55550	437.76965	540.37549	-262.16229	286.24133	623.24054	-265.33820	238.73462	623.77521	-203.19861	277.84027	611.57117	-214.38358	230.78191	617.96967	-280.52438	102.63497	638.47827	-267.67911	101.49385	555.14423	-338.16003	81.17742	592.30670	-136.48659	53.93223	562.20850	-120.81541	65.19701	602.31348	-147.65311	51.76159	649.93945
331	2.75000	-301.21384	986.53455	426.09891	-114.83209	948.86938	345.91006	-219.43190	599.43518	299.22433	-215.70761	556.80890	303.94958	-156.24579	594.76544	313.40073	-164.00636	552.71185	315.62466	-197.95518	480.65021	320.88013	-199.64322	470.45010	429.09116	-263.87802	390.10458	303.98969	-258.81784	344.58295	296.69064	-201.75777	390.05829	309.48129	-204.38219	348.06320	304.25537	-253.88408	92.70380	333.53415	-235.13121	110.91271	416.36188	-314.66144	77.98479	383.68103	-134.57123	42.18465	312.40009	-94.22314	62.36943	367.82224	-117.97209	55.25050	407.16150	-289.35141	997.60822	557.31311	-113.99390	953.42407	608.53638	-245.16185	601.32977	648.44574	-243.75471	558.59491	649.34900	-182.80972	597.26074	640.40515	-189.44801	553.33594	645.38025	-228.39374	440.04034	629.46637	-228.57523	437.75119	540.33936	-262.35632	286.30713	623.32373	-265.30139	238.70947	623.74921	-203.12608	277.83234	611.52740	-214.35139	230.79735	617.94354	-280.50690	102.59585	638.47388	-267.66309	101.47473	555.12933	-338.13831	81.16288	592.29193	-136.49538	53.91582	562.18872	-120.82706	65.18319	602.31592	-147.63432	51.74324	649.93988
332	2.75833	-301.19916	986.55096	425.98477	-114.76099	948.83496	345.88501	-219.35519	599.41449	299.19058	-215.62604	556.79285	303.90549	-156.22377	594.72675	313.37317	-163.95755	552.67432	315.58853	-197.90747	480.63870	320.85471	-199.64711	470.35559	429.18118	-263.81131	390.08167	303.95706	-258.77835	344.56470	296.68167	-201.74591	390.01923	309.48087	-204.34044	348.04321	304.23682	-253.87129	92.69903	333.52902	-235.10062	110.90424	416.35922	-314.63510	77.98962	383.65759	-134.55609	42.16799	312.39725	-94.21990	62.33764	367.81744	-117.93777	55.23072	407.17050	-289.32138	997.61462	557.18640	-113.97285	953.41803	608.50800	-244.84807	601.27448	648.16730	-243.73996	558.59570	649.29761	-182.77718	597.25958	640.34808	-189.41116	553.33954	645.33527	-228.37350	440.03122	629.43958	-228.55270	437.73633	540.31671	-262.33386	286.30878	623.29413	-265.29868	238.70279	623.73633	-203.11029	277.82578	611.49170	-214.32736	230.78009	617.90210	-280.48804	102.59140	638.45166	-267.64551	101.46996	555.09393	-338.08704	81.15170	592.26685	-136.49261	53.89479	562.19055	-120.82244	65.17373	602.29413	-147.64304	51.74715	649.93665
333	2.76667	-301.08838	986.55249	425.88913	-114.68983	948.81555	345.86722	-219.32011	599.41504	299.15811	-215.60233	556.81281	303.88345	-156.19958	594.71667	313.34915	-163.93910	552.67572	315.55981	-197.88861	480.63321	320.84216	-199.61127	470.43329	429.04288	-263.78320	390.07913	303.92621	-258.74176	344.55463	296.63892	-201.66902	390.03421	309.46234	-204.32518	348.01917	304.22394	-253.86098	92.69396	333.52057	-235.09297	110.92258	416.34027	-314.62863	78.00068	383.66455	-134.56032	42.15701	312.39621	-94.21664	62.34022	367.80170	-117.93314	55.22754	407.14523	-289.35461	997.65631	557.10419	-113.96719	953.43683	608.47333	-245.11348	601.33093	648.34833	-243.72491	558.60046	649.26611	-182.74574	597.27802	640.27374	-189.41277	553.34161	645.29901	-228.36522	440.03708	629.39398	-228.52959	437.71976	540.27063	-262.34650	286.31699	623.26801	-265.28864	238.72237	623.70819	-203.10201	277.83353	611.46997	-214.32074	230.80331	617.87219	-280.47552	102.60190	638.43134	-267.64432	101.46700	555.10510	-338.12607	81.18871	592.24469	-136.49045	53.87548	562.19440	-120.81467	65.14639	602.28741	-147.62642	51.76074	649.92206
334	2.77500	-301.03647	986.53534	425.77560	-114.60474	948.83441	345.84659	-219.27199	599.40582	299.12540	-215.58369	556.79883	303.86429	-156.13606	594.72174	313.31702	-163.92787	552.65863	315.55350	-197.85652	480.64056	320.83054	-199.52766	470.49463	429.02634	-263.78082	390.06400	303.91663	-258.73749	344.54584	296.62546	-201.63783	390.03711	309.45273	-204.29738	348.02869	304.21851	-253.88420	92.68434	333.53925	-235.05617	110.94350	416.31567	-314.61438	77.96896	383.66672	-134.53056	42.18242	312.37756	-94.19821	62.35936	367.78015	-117.89679	55.27970	407.11804	-289.33292	997.66870	556.96454	-113.90752	953.48779	608.42883	-245.04308	601.35632	648.28381	-242.14720	557.57697	650.45074	-182.61819	597.27679	639.97131	-189.34590	553.37408	645.23938	-228.33075	440.05084	629.35187	-228.53281	437.72247	540.25055	-262.30817	286.32733	623.23273	-265.24869	238.74078	623.65985	-203.07219	277.85388	611.44537	-214.30498	230.82828	617.84412	-280.45972	102.65010	638.40259	-267.65759	101.45753	555.09100	-338.10641	81.21181	592.21808	-136.47812	53.89429	562.20325	-120.80460	65.17331	602.29193	-147.60040	51.76916	649.91241
335	2.78333	-300.98337	986.54553	425.73010	-114.55382	948.83167	345.82990	-219.26707	599.41406	299.11270	-215.54747	556.79773	303.84976	-156.11391	594.73840	313.30994	-163.89136	552.66724	315.54758	-197.85252	480.63931	320.82263	-199.51418	470.51270	429.01273	-263.76956	390.07077	303.88745	-258.72443	344.56384	296.60910	-201.54527	390.08417	309.41953	-204.27380	348.04303	304.21921	-253.90071	92.69023	333.53943	-235.06688	110.95452	416.31122	-314.65302	78.00246	383.67163	-134.52667	42.20327	312.38535	-94.17182	62.38426	367.78510	-117.89774	55.29119	407.10617	-289.32333	997.66431	556.86639	-113.88619	953.50970	608.39594	-244.78323	601.29669	648.00372	-242.24702	557.60547	650.21924	-182.08951	596.18524	641.08594	-189.31813	553.39941	645.19104	-228.31937	440.06442	629.31372	-228.55615	437.71417	540.22858	-262.08569	286.27548	623.08704	-265.23492	238.74199	623.63525	-203.05205	277.88211	611.42749	-214.28012	230.86520	617.82385	-280.44983	102.67345	638.40491	-267.67035	101.45605	555.10901	-338.08127	81.19267	592.20905	-136.50031	53.88200	562.20648	-120.81881	65.18250	602.30701	-147.58664	51.79077	649.90247
336	2.79167	-300.94196	986.52826	425.62305	-114.46844	948.84601	345.81192	-219.22131	599.40991	299.08774	-215.52216	556.79449	303.83960	-156.06830	594.72717	313.28723	-163.84398	552.67914	315.53342	-197.83742	480.63190	320.80725	-199.57211	470.43106	429.12021	-263.75113	390.07092	303.87555	-258.68762	344.53754	296.59296	-201.62830	390.04181	309.43121	-204.22916	348.07083	304.21768	-253.90134	92.69464	333.54123	-235.08318	110.97454	416.31491	-314.63742	77.98853	383.68594	-134.53587	42.20388	312.38828	-94.17817	62.37228	367.80899	-117.89594	55.30542	407.11084	-289.34372	997.65106	556.79266	-113.90536	953.51770	608.37695	-245.08528	601.36432	648.17993	-242.25328	557.61786	650.17786	-182.09233	596.20013	641.03357	-189.33366	553.39856	645.15076	-228.35204	440.06720	629.28851	-228.53229	437.72446	540.18457	-262.32248	286.36496	623.18048	-265.28760	238.73828	623.59937	-203.07446	277.88412	611.41296	-214.29391	230.87122	617.80579	-280.44952	102.70403	638.41534	-267.66400	101.46703	555.10181	-338.11356	81.20693	592.20825	-136.49928	53.90343	562.19586	-120.84306	65.18024	602.31061	-147.63431	51.76694	649.89276
